<?xml version="1.0" encoding="utf-8"?>
<!-- Generator: Adobe Illustrator 19.0.0, SVG Export Plug-In . SVG Version: 6.00 Build 0)  -->
<svg version="1.1" id="Layer_1" xmlns="http://www.w3.org/2000/svg" xmlns:xlink="http://www.w3.org/1999/xlink" x="0px" y="0px"
	 viewBox="-39 40.6 120.4 120.4" style="enable-background:new -39 40.6 120.4 120.4;" xml:space="preserve">
<path id="XMLID_10_" d="M66,110.7c5.5-5.9,8.6-13.5,8.6-21.6c0-17.4-14.2-31.6-31.6-31.6c-15.1,0-27.8,10.4-30.9,24.9
	C8.2,80.7,4,79.8-0.5,79.8c-17.4,0-31.6,14.2-31.6,31.6c0,8.1,3,15.7,8.6,21.6L-39,150.5l3.6-0.3c1.3-0.1,32-3,41.9-6.7
	c13.1-5,21.4-13.6,23.8-24.8c1.8,0.9,3.7,1.8,5.7,2.5c9.9,3.8,40.6,6.6,41.9,6.7l3.6,0.3L66,110.7z M5.5,140.8
	c-7.6,2.9-29.1,5.3-37.6,6.2l12.5-14.2l-1-0.9c-5.6-5.5-8.6-12.8-8.6-20.5c-0.1-15.9,12.8-28.8,28.7-28.8c4.8,0,9.3,1.2,13.2,3.2
	c0.4,0.2,0.8,0.4,1.2,0.6c0.2,0.1,0.3,0.2,0.5,0.3c0.4,0.3,0.8,0.5,1.3,0.8c0.3,0.2,0.6,0.4,0.9,0.6c0.1,0.1,0.2,0.2,0.3,0.2
	c4.7,3.5,8.2,8.4,10,14.1c0,0.1,0.1,0.3,0.1,0.4c0.1,0.3,0.2,0.7,0.3,1c0.1,0.3,0.1,0.5,0.2,0.8c0.1,0.3,0.1,0.5,0.2,0.8
	c0.1,0.5,0.2,1.1,0.3,1.6c0,0.2,0,0.4,0.1,0.6c0.1,0.4,0.1,0.8,0.1,1.3c0,0.2,0,0.4,0,0.6c0,0.6,0.1,1.2,0.1,1.8
	c0,1.7-0.1,3.3-0.4,4.9l-0.1,0.6C25.9,127.8,18.3,136,5.5,140.8z M37,118.6c-2.1-0.8-4.2-1.8-6.1-2.8v-0.1c0.1-0.6,0.1-1.3,0.2-2
	c0-0.1,0-0.2,0-0.3c0-0.7,0.1-1.3,0.1-2s0-1.3-0.1-1.9c0-0.2,0-0.4,0-0.6c0-0.4-0.1-0.9-0.1-1.3c0-0.2-0.1-0.5-0.1-0.7
	c-0.1-0.4-0.1-0.9-0.2-1.3s-0.2-0.9-0.3-1.3c-0.1-0.3-0.1-0.5-0.2-0.8c-0.1-0.4-0.2-0.8-0.3-1.2c0-0.1-0.1-0.3-0.1-0.4
	c-2.1-6.6-6.3-12.4-12.1-16.4c-0.2-0.1-0.3-0.2-0.5-0.3c-0.3-0.2-0.6-0.4-0.8-0.5c-0.3-0.2-0.7-0.4-1-0.6c-0.1-0.1-0.3-0.2-0.4-0.2
	c2.6-13.4,14.5-23.3,28.2-23.3C59.1,60.6,72,73.5,72,89.4c0,7.8-3.1,15.1-8.6,20.5l-1,0.9L74.9,125C66,123.9,44.6,121.4,37,118.6z"
	/>
<g>
	<path d="M-2.8,104.3v1.9h-5.7v3.5H-4v1.8h-4.5v3.6h5.7v1.9h-8.1v-12.8H-2.8z"/>
	<path d="M0.7,104.3c0.1,0,0.1,0,0.2,0.1c0.1,0,0.1,0.1,0.2,0.1s0.1,0.1,0.2,0.2l6.7,8.5c0-0.2,0-0.4,0-0.6c0-0.2,0-0.4,0-0.6v-7.8
		H10v12.8H8.8c-0.2,0-0.3,0-0.5-0.1c-0.1-0.1-0.2-0.2-0.4-0.3l-6.7-8.5c0,0.2,0,0.4,0,0.6c0,0.2,0,0.4,0,0.5v7.8h-2.1v-12.8h1.2
		C0.6,104.3,0.7,104.3,0.7,104.3z"/>
</g>
<g>
	<path d="M44.1,82.7v1.9h-5.7v3.5h4.5V90h-4.5v3.6h5.7v1.9h-8.1V82.7H44.1z"/>
	<path d="M53,85.1c-0.1,0.1-0.1,0.2-0.2,0.3c-0.1,0.1-0.2,0.1-0.3,0.1c-0.1,0-0.3,0-0.4-0.1c-0.1-0.1-0.3-0.2-0.5-0.3
		c-0.2-0.1-0.4-0.2-0.7-0.3c-0.3-0.1-0.6-0.1-0.9-0.1c-0.3,0-0.6,0-0.9,0.1c-0.2,0.1-0.4,0.2-0.6,0.3c-0.2,0.1-0.3,0.3-0.4,0.5
		c-0.1,0.2-0.1,0.4-0.1,0.6c0,0.3,0.1,0.6,0.3,0.8c0.2,0.2,0.4,0.4,0.7,0.5s0.6,0.3,0.9,0.4c0.4,0.1,0.7,0.2,1.1,0.4
		c0.4,0.1,0.7,0.3,1.1,0.4c0.4,0.2,0.7,0.4,0.9,0.6c0.3,0.3,0.5,0.6,0.7,0.9c0.2,0.4,0.3,0.8,0.3,1.4c0,0.6-0.1,1.1-0.3,1.6
		s-0.5,0.9-0.9,1.3s-0.8,0.7-1.4,0.9c-0.5,0.2-1.2,0.3-1.9,0.3c-0.4,0-0.8,0-1.2-0.1c-0.4-0.1-0.8-0.2-1.1-0.3
		c-0.4-0.1-0.7-0.3-1-0.5c-0.3-0.2-0.6-0.4-0.8-0.7l0.7-1.1c0.1-0.1,0.1-0.2,0.2-0.2c0.1-0.1,0.2-0.1,0.3-0.1c0.1,0,0.3,0.1,0.5,0.2
		c0.2,0.1,0.4,0.3,0.6,0.4c0.2,0.1,0.5,0.3,0.8,0.4c0.3,0.1,0.7,0.2,1.1,0.2c0.7,0,1.2-0.2,1.6-0.5s0.6-0.8,0.6-1.4
		c0-0.3-0.1-0.6-0.3-0.8c-0.2-0.2-0.4-0.4-0.7-0.5c-0.3-0.1-0.6-0.3-0.9-0.4c-0.4-0.1-0.7-0.2-1.1-0.3c-0.4-0.1-0.7-0.3-1.1-0.4
		c-0.4-0.2-0.7-0.4-0.9-0.6c-0.3-0.3-0.5-0.6-0.7-1c-0.2-0.4-0.3-0.9-0.3-1.5c0-0.5,0.1-0.9,0.3-1.4c0.2-0.4,0.5-0.8,0.8-1.2
		c0.4-0.3,0.8-0.6,1.3-0.8c0.5-0.2,1.1-0.3,1.8-0.3c0.8,0,1.4,0.1,2.1,0.4c0.6,0.2,1.2,0.6,1.6,1L53,85.1z"/>
</g>
</svg>
