<?xml version="1.0" encoding="utf-8"?>
<!-- Generator: Adobe Illustrator 19.0.0, SVG Export Plug-In . SVG Version: 6.00 Build 0)  -->
<svg version="1.1" id="Layer_1" xmlns="http://www.w3.org/2000/svg" xmlns:xlink="http://www.w3.org/1999/xlink" x="0px" y="0px"
	 viewBox="0 0 120.4 120.4" style="enable-background:new 0 0 120.4 120.4;" xml:space="preserve">
<style type="text/css">
	.st0{fill:none;stroke:#000000;stroke-width:3;stroke-miterlimit:10;}
</style>
<path id="XMLID_38_" class="st0" d="M9.4,70.5l-5-2.8c-1.9-1.1-2.6-3.5-1.5-5.5l19.3-33.9c1.1-1.9,3.5-2.6,5.5-1.5l5,2.8
	c1.9,1.1,2.6,3.5,1.5,5.5L14.9,69C13.8,70.9,11.4,71.6,9.4,70.5z"/>
<path id="XMLID_37_" class="st0" d="M115.4,66l-4.8,3c-1.9,1.2-4.3,0.6-5.5-1.3L84.3,34.6c-1.2-1.9-0.6-4.3,1.3-5.5l4.8-3
	c1.9-1.2,4.3-0.6,5.5,1.3l20.7,33.2C117.8,62.4,117.2,64.9,115.4,66z"/>
<path id="XMLID_35_" class="st0" d="M20.6,82l-0.4-0.3c-1.7-1.4-2-3.9-0.6-5.6l4.9-6c1.4-1.7,3.9-2,5.6-0.6l0.4,0.3
	c1.7,1.4,2,3.9,0.6,5.6l-4.9,6C24.8,83.1,22.3,83.3,20.6,82z"/>
<path id="XMLID_34_" class="st0" d="M44.2,99.3l-0.4-0.3c-1.7-1.4-2-3.9-0.6-5.6l4.9-6c1.4-1.7,3.9-2,5.6-0.6l0.4,0.3
	c1.7,1.4,2,3.9,0.6,5.6l-4.9,6C48.5,100.4,45.9,100.6,44.2,99.3z"/>
<path id="XMLID_33_" class="st0" d="M27.4,88.7l-0.4-0.3c-1.7-1.4-2-3.9-0.6-5.6l9.4-11.5c1.4-1.7,3.9-2,5.6-0.6l0.4,0.3
	c1.7,1.4,2,3.9,0.6,5.6L33,88.1C31.6,89.8,29.1,90.1,27.4,88.7z"/>
<path id="XMLID_32_" class="st0" d="M35.2,94.7l-0.4-0.3c-1.7-1.4-2-3.9-0.6-5.6l9.4-11.5c1.4-1.7,3.9-2,5.6-0.6l0.4,0.3
	c1.7,1.4,2,3.9,0.6,5.6l-9.4,11.5C39.5,95.8,36.9,96.1,35.2,94.7z"/>
<g id="XMLID_29_">
	<path id="XMLID_31_" class="st0" d="M73.9,70.4l22.7,12.5c5.5,2.1,8.3-5.7,5.2-8.1l-7.9-5.2"/>
	<path id="XMLID_43_" class="st0" d="M54.2,94.4c22.8,14.1,23.7,1.3,19-1.4"/>
	<path id="XMLID_41_" class="st0" d="M67.5,78.9l18.8,10c6.9,3.4,11.8-4.8,5.5-8.6"/>
	<path id="XMLID_42_" class="st0" d="M62.6,87.7L77.2,95c7.2,3.5,11.9-4.9,6.5-7.6"/>
	<path id="XMLID_40_" class="st0" d="M79.8,96"/>
	<path id="XMLID_44_" class="st0" d="M51,78.8c-0.2-0.6-0.6-1.2-1.1-1.6l-0.8-0.6c-1.6-1.3-4-1.1-5.3,0.5l-3.2,4
		c-0.4-0.3-0.8-0.5-1.1-0.8l3.1-3.8c1.3-1.6,1.1-4-0.5-5.3l-0.8-0.6c-1.6-1.3-4-1.1-5.3,0.5l-3.5,4.3c-0.3-0.2-0.5-0.4-0.8-0.6
		c0.9-1.6,0.6-3.6-0.9-4.8l-0.8-0.6c-1.6-1.3-4-1.1-5.3,0.5c-2.4-1.7-4.9-4.8-6.7-6.1c4.2-7.5,7.9-13.9,13.8-24.3
		c3,4.9,9.5,1.6,13.9,3.8c-4.2,5.4-10.3,11.2-8.3,14.8c4.3,7.8,14.7-9.6,20-8.6c9.3,3.4,18.3,9.8,25.9,14c2.9,1.8,10.7,6.2,10.7,6.2
		c2.5,0.9,9.3-1.5,9.7-4.1C99.5,58.9,91,45.7,86.7,38.5c-11.3-1.4-34.2-0.8-41.2,4.8"/>
</g>
</svg>
