<?xml version="1.0" encoding="utf-8"?>
<!-- Generator: Adobe Illustrator 19.0.0, SVG Export Plug-In . SVG Version: 6.00 Build 0)  -->
<svg version="1.1" id="Layer_1" xmlns="http://www.w3.org/2000/svg" xmlns:xlink="http://www.w3.org/1999/xlink" x="0px" y="0px"
	 viewBox="0 0 120.4 120.4" style="enable-background:new 0 0 120.4 120.4;" xml:space="preserve">
<style type="text/css">
	.st0{fill:none;stroke:#000000;stroke-width:3;stroke-miterlimit:10;}
</style>
<path id="XMLID_12_" class="st0" d="M98.8,43.4c0,22.5-40.8,74.4-40.8,74.4S17.2,65.9,17.2,43.4S35.5,2.6,58,2.6
	S98.8,20.8,98.8,43.4z"/>
<circle id="XMLID_10_" class="st0" cx="58" cy="43.2" r="29.2"/>
<path id="XMLID_8_" d="M39.8,39.8c3.2-1.1,6.9-1,9.7-0.5c-1.7,0.8-3.1,1.9-4.1,3.4c-3.1,5-0.4,12-0.3,12.4c0.2,0.4,0.6,0.7,1.1,0.7
	c0.5-0.1,0.9-0.4,1-0.8c1.4-5.7,5-7.4,7.6-7.9c-0.1,0.2-0.1,0.5,0,0.7l1.5,4.1L56,51.7c-0.4,0-0.7,0.2-1,0.5c-0.2,0.3-0.3,0.7-0.1,1
	l1.9,4.5l-1.4,0.1c-0.4,0.1-0.6,0.2-0.9,0.5c-0.2,0.3-0.3,0.6-0.2,1l1.5,3.9l-0.5,0c-0.4,0-0.6,0.2-0.8,0.4
	c-0.2,0.2-0.3,0.6-0.2,0.9l1.4,7.8l10.6-0.7l1.6-7.4c0.1-0.3,0-0.7-0.2-0.9c-0.2-0.3-0.5-0.4-0.9-0.4L66,63l0.8-4.3
	c0-0.3,0-0.7-0.3-0.9c-0.3-0.3-0.6-0.4-0.9-0.4l-0.8,0l1.1-4.1c0.1-0.3,0-0.7-0.2-0.9c-0.2-0.3-0.5-0.4-0.9-0.5l-0.4,0l1.2-3.4
	c0-0.2,0.1-0.5,0.1-0.6c3.9,1.6,7.3,7.2,8.5,9.8c0.2,0.4,0.7,0.7,1.1,0.6l0,0c0.4-0.1,0.8-0.4,0.9-0.9c0.9-4.9,0.2-9.1-1.9-12.3
	c-1-1.5-2.4-2.6-3.6-3.4c6,0.3,10.3,3.5,10.3,3.6c0.3,0.3,0.9,0.3,1.3,0c0.4-0.3,0.6-0.7,0.5-1.2c-1.2-5-3.4-8.4-6.8-10
	c-3.9-1.9-8.2-1-10.2-0.4c-1.5-3.9-3.6-6.5-6.4-7.8c-4.6-2.1-9.2-0.1-9.4,0c-0.3,0.2-0.7,0.5-0.7,1c0,0.4,0.2,0.8,0.5,1
	c2.6,1.5,4.2,3.2,5.3,4.7c-3.6-1.8-6.9-2.3-9.8-1.4c-5,1.5-6.9,6.7-7,6.9c-0.2,0.4,0,0.8,0.2,1.1C38.9,39.9,39.3,40,39.8,39.8z
	 M65.6,65.2l-1.2,6.5H58l-1.2-6.3 M58.1,63.1l-1.2-3.2l7.5-0.3L63.8,63L58.1,63.1z M59.1,57.7L57.5,54l0.1,0l0,0l5.8,0.1l-1,3.5
	L59.1,57.7z M58.6,51.8l-1.1-3.2l5.7,0.6l-1,2.8L58.6,51.8z M46,33.5c3.1-1,6.9,0.1,11.2,3.2c0.4,0.2,0.8,0.2,1.3,0
	c0.4-0.3,0.6-0.7,0.4-1.2c0-0.2-1.2-4.4-6-8c1.5-0.3,3.5-0.4,5.5,0.6c2.5,1.2,4.4,3.6,5.6,7.4c0.1,0.3,0.3,0.5,0.6,0.6
	c0.3,0.1,0.6,0.1,0.9,0c0.1,0,5.1-2.2,9.4-0.1c2.2,1.1,3.8,3,4.8,5.9c-2.9-1.5-7.9-3.3-13.9-2.1c-0.5,0.1-0.9,0.6-0.9,1.1
	c0,0.5,0.4,1,0.9,1.1c0.4,0.1,8.7,1.7,8.5,11.6c-2.2-3.6-6.5-9-11.8-8.3c-0.6,0.1-1,0.7-0.9,1.2c0,0.1,0,0.1,0,0.2l-3.2-0.3
	c0.1-0.2,0.2-0.3,0.3-0.6c0.1-0.6-0.3-1.1-0.9-1.3c-0.1,0-7.9-1.1-11.6,6.2c-0.3-2.2-0.4-4.9,1-7.1c1.3-2,3.7-3.2,7.2-3.5
	c0.5,0,1-0.4,1-1c0.1-0.5-0.2-1-0.8-1.1c-0.3-0.1-7-2.3-13.3-1.2C42.4,35.8,43.9,34.1,46,33.5z"/>
</svg>
