<?xml version="1.0" encoding="utf-8"?>
<!-- Generator: Adobe Illustrator 19.0.0, SVG Export Plug-In . SVG Version: 6.00 Build 0)  -->
<svg version="1.1" id="Layer_1" xmlns="http://www.w3.org/2000/svg" xmlns:xlink="http://www.w3.org/1999/xlink" x="0px" y="0px"
	 viewBox="-566 328.1 145.3 144.9" style="enable-background:new -566 328.1 145.3 144.9;" xml:space="preserve">
<style type="text/css">
	.st0{fill:none;stroke:#000000;stroke-width:5;stroke-miterlimit:10;}
</style>
<circle id="XMLID_3_" class="st0" cx="-497.6" cy="402.8" r="62"/>
<g>
	<path d="M-519,402.9v-0.2c0-13.1,10.3-24.3,23.8-24.3c8.8,0,14.3,3.7,18.6,8.3l-4.6,4.9c-3.7-3.9-7.8-7-14.1-7
		c-9.4,0-16.6,8-16.6,18v0.2c0,10.1,7.4,18.1,17.1,18.1c5.9,0,10.5-3,14.2-6.9l4.4,4.1c-4.7,5.2-10.3,9-19,9
		C-508.7,427-519,416-519,402.9z"/>
</g>
</svg>
