<?xml version="1.0" encoding="utf-8"?>
<!-- Generator: Adobe Illustrator 19.0.0, SVG Export Plug-In . SVG Version: 6.00 Build 0)  -->
<svg version="1.1" id="Layer_1" xmlns="http://www.w3.org/2000/svg" xmlns:xlink="http://www.w3.org/1999/xlink" x="0px" y="0px"
	 viewBox="-589 351 100.3 100" style="enable-background:new -589 351 100.3 100;" xml:space="preserve">
<style type="text/css">
	.st0{fill:#FFFFFF;}
</style>
<g id="XMLID_3_">
	<path class="st0" d="M-538.1,444.3c-24.7,0-44.8-20.1-44.8-44.8c0-24.7,20.1-44.8,44.8-44.8c24.7,0,44.8,20.1,44.8,44.8
		C-493.2,424.2-513.3,444.3-538.1,444.3z M-538.1,358.1c-22.8,0-41.4,18.6-41.4,41.4c0,22.8,18.6,41.4,41.4,41.4
		c22.8,0,41.4-18.6,41.4-41.4C-496.7,376.7-515.3,358.1-538.1,358.1z"/>
</g>
<g>
	<g>
		<path class="st0" d="M-553,399.6v-0.1c0-9.1,7.1-16.9,16.6-16.9c6.1,0,9.9,2.6,12.9,5.8l-3.2,3.4c-2.6-2.7-5.4-4.9-9.8-4.9
			c-6.6,0-11.6,5.6-11.6,12.5v0.1c0,7,5.1,12.6,11.9,12.6c4.1,0,7.3-2.1,9.9-4.8l3.1,2.9c-3.3,3.6-7.1,6.3-13.2,6.3
			C-545.8,416.4-553,408.7-553,399.6z"/>
	</g>
</g>
</svg>
