<?xml version="1.0" encoding="utf-8"?>
<!-- Generator: Adobe Illustrator 19.0.0, SVG Export Plug-In . SVG Version: 6.00 Build 0)  -->
<svg version="1.1" id="Layer_1" xmlns="http://www.w3.org/2000/svg" xmlns:xlink="http://www.w3.org/1999/xlink" x="0px" y="0px"
	 viewBox="-566 328.1 397.7 115.9" style="enable-background:new -566 328.1 397.7 115.9;" xml:space="preserve">
<style type="text/css">
	.st0{fill:#231F20;}
</style>
<g>
	<polygon class="st0" points="-565.4,329.3 -528.7,329.3 -528.7,335.7 -558.2,335.7 -558.2,361.4 -529.8,361.4 -529.8,367.9 
		-558.2,367.9 -558.2,400.4 -565.4,400.4 	"/>
	<g>
		<path class="st0" d="M-483.4,334.8c-17,0.1-31,13.6-31,30.3c0,16.5,14.6,29.7,31,29.7c17,0,30.9-13.4,30.9-30.2
			c0-16.5-14.4-29.7-30.9-29.7V334.8z M-445.2,364.6c0,20.7-17.3,37.1-38.2,37.1c-20.2,0-38.1-16.1-38.1-36.5
			c0-20.7,17.2-37.1,38.1-37.1C-463,328.1-445.2,344.2-445.2,364.6"/>
		<path class="st0" d="M-437.6,329.3h17.2c6.9,0,14.5,0.1,20.5,3.5c7.3,4.2,11.3,11.5,11.3,19.7c0,11.7-9.6,21.1-21.3,21.4
			l20.4,26.6h-9l-24.6-32.2h2.2c5.1,0,10.9,0.2,15.7-1.9c6-2.7,9.4-8.1,9.4-14.4c0-5-2.6-9.9-6.7-12.7c-4.8-3.4-10.7-3.4-16.3-3.4
			h-11.5v64.7h-7.2V329.3z"/>
	</g>
	<polygon class="st0" points="-368.6,335.7 -385.2,335.7 -385.2,329.3 -344.9,329.3 -344.9,335.7 -361.3,335.7 -361.3,400.4 
		-368.6,400.4 	"/>
	<g>
		<path class="st0" d="M-328.3,329.3v43.2c0,5.1,0.5,10.5,3.4,14.9c3,4.7,8.4,7.4,14.1,7.4c5.1,0,10.3-2.3,13.3-6.5
			c3.5-4.6,4-10.3,4-15.9v-43.2h7.2v43.2c0,7.3-0.6,14.2-5.4,20.1c-4.5,5.9-11.7,9.1-19.2,9.1c-7.2,0-14.3-3-18.9-8.5
			c-5-6.1-5.8-13.2-5.8-20.7v-43.2H-328.3z"/>
	</g>
	<polygon class="st0" points="-275.5,329.3 -265.8,329.3 -225.3,388.3 -225.3,329.3 -218,329.3 -218,400.4 -225.3,400.4 
		-268.3,337.8 -268.3,400.4 -275.5,400.4 	"/>
	<polygon class="st0" points="-207.7,329.3 -168.2,329.3 -168.2,335.7 -200.5,335.7 -200.5,361.3 -169.3,361.3 -169.3,367.8 
		-200.5,367.8 -200.5,394 -168.2,394 -168.2,400.4 -207.7,400.4 	"/>
	<rect x="-566" y="416.2" class="st0" width="2.8" height="27.7"/>
	<polygon class="st0" points="-558.4,416.2 -554.6,416.2 -538.8,439.2 -538.8,416.2 -535.9,416.2 -535.9,444 -538.8,444 
		-555.5,419.6 -555.5,444 -558.4,444 	"/>
	<polygon class="st0" points="-527.3,418.7 -533.8,418.7 -533.8,416.2 -518,416.2 -518,418.7 -524.4,418.7 -524.4,444 -527.3,444 	
		"/>
	<polygon class="st0" points="-515.8,416.2 -500.4,416.2 -500.4,418.7 -513,418.7 -513,428.7 -500.8,428.7 -500.8,431.3 -513,431.3 
		-513,441.4 -500.4,441.4 -500.4,444 -515.8,444 	"/>
	<g>
		<path class="st0" d="M-496.4,416.2h6.7c2.7,0,5.6,0,8,1.3c2.9,1.6,4.4,4.5,4.4,7.7c0,4.5-3.7,8.2-8.3,8.3l7.9,10.3h-3.5l-9.6-12.5
			h0.9c2,0,4.2,0,6.1-0.8c2.3-1.1,3.6-3.1,3.6-5.6c0-1.9-1-3.8-2.6-4.9c-1.8-1.3-4.1-1.3-6.4-1.3h-4.4V444h-2.8V416.2z"/>
	</g>
	<polygon class="st0" points="-474.2,416.2 -470.4,416.2 -454.6,439.2 -454.6,416.2 -451.8,416.2 -451.8,444 -454.6,444 
		-471.4,419.6 -471.4,444 -474.2,444 	"/>
	<path class="st0" d="M-430.3,432.2l-5.4-12.8l-5.5,12.8H-430.3z M-437.3,416.2h3.1L-422,444h-3.1l-4.1-9.3h-13.1l-4.1,9.3h-3
		L-437.3,416.2z"/>
	<polygon class="st0" points="-418.9,418.7 -425.4,418.7 -425.4,416.2 -409.7,416.2 -409.7,418.7 -416.1,418.7 -416.1,444 
		-418.9,444 	"/>
	<rect x="-407.5" y="416.2" class="st0" width="2.8" height="27.7"/>
	<g>
		<path class="st0" d="M-387,418.4c-6.6,0-12.1,5.3-12.1,11.8c0,6.4,5.7,11.6,12.1,11.6c6.6,0,12.1-5.2,12.1-11.8
			C-374.9,423.6-380.6,418.5-387,418.4L-387,418.4z M-372.1,430c0,8.1-6.7,14.5-14.9,14.5c-7.9,0-14.9-6.3-14.9-14.2
			c0-8.1,6.7-14.5,14.9-14.5C-379.1,415.8-372.1,422.1-372.1,430"/>
	</g>
	<polygon class="st0" points="-369,416.2 -365.2,416.2 -349.5,439.2 -349.5,416.2 -346.6,416.2 -346.6,444 -349.5,444 -366.2,419.6 
		-366.2,444 -369,444 	"/>
	<path class="st0" d="M-325.1,432.2l-5.4-12.8l-5.5,12.8H-325.1z M-332.1,416.2h3.1l12.1,27.7h-3.1l-4.1-9.3h-13.1l-4.1,9.3h-3
		L-332.1,416.2z"/>
	<polygon class="st0" points="-314.6,416.2 -311.8,416.2 -311.8,441.4 -300.1,441.4 -300.1,444 -314.6,444 	"/>
	<g>
		<path class="st0" d="M-288.4,416.2h6.7c2.7,0,5.6,0,8,1.3c2.8,1.6,4.4,4.5,4.4,7.7c0,4.5-3.7,8.2-8.3,8.3l8,10.3h-3.5l-9.6-12.5
			h0.8c2,0,4.3,0,6.1-0.8c2.4-1.1,3.7-3.1,3.7-5.6c0-1.9-1-3.8-2.6-4.9c-1.9-1.3-4.2-1.3-6.4-1.3h-4.5V444h-2.8V416.2z"/>
	</g>
	<polygon class="st0" points="-265.3,416.2 -249.9,416.2 -249.9,418.7 -262.5,418.7 -262.5,428.7 -250.3,428.7 -250.3,431.3 
		-262.5,431.3 -262.5,441.4 -249.9,441.4 -249.9,444 -265.3,444 	"/>
	<path class="st0" d="M-229.2,432.2l-5.4-12.8l-5.5,12.8H-229.2z M-236.2,416.2h3.1l12.1,27.7h-3l-4.1-9.3h-13.1l-4.1,9.3h-3.1
		L-236.2,416.2z"/>
	<polygon class="st0" points="-219.2,416.2 -216.4,416.2 -216.4,441.4 -204.8,441.4 -204.8,444 -219.2,444 	"/>
	<polygon class="st0" points="-201.5,418.7 -207.9,418.7 -207.9,416.2 -192.3,416.2 -192.3,418.7 -198.7,418.7 -198.7,444 
		-201.5,444 	"/>
	<polygon class="st0" points="-180.9,434.7 -190.7,416.2 -187.6,416.2 -179.5,431.8 -171.4,416.2 -168.3,416.2 -178.1,434.7 
		-178.1,444 -180.9,444 	"/>
</g>
</svg>
